<?xml version="1.0" encoding="UTF-8"?>
<svg width="64" height="64" viewBox="0 0 64 64" xmlns="http://www.w3.org/2000/svg" role="img" aria-label="Favicon">
  <defs><linearGradient id="g" x1="0" y1="0" x2="1" y2="1"><stop offset="0" stop-color="#5CC489"/><stop offset="1" stop-color="#6EA0FF"/></linearGradient></defs>
  <rect x="2" y="2" width="60" height="60" rx="12" fill="#111821" stroke="#1D2836"/>
  <path d="M14 32c0-8 6-14 14-14h7v6h-7c-5 0-8 4-8 8s3 8 8 8h7v6h-7c-8 0-14-6-14-14z" fill="url(#g)"/>
  <path d="M30 18h8c8 0 14 6 14 14s-6 14-14 14h-8v-6h8c5 0 8-4 8-8s-3-8-8-8h-8v-6z" fill="url(#g)"/>
</svg>