<?xml version="1.0" encoding="UTF-8"?>
<svg width="1200" height="600" viewBox="0 0 1200 600" xmlns="http://www.w3.org/2000/svg" role="img" aria-label="CalcWood Hero">
  <defs>
    <linearGradient id="bg" x1="0" y1="0" x2="1" y2="1"><stop offset="0" stop-color="#0B0F14"/><stop offset="1" stop-color="#0E141C"/></linearGradient>
    <linearGradient id="g1" x1="0" y1="0" x2="1" y2="0"><stop offset="0" stop-color="#5CC489"/><stop offset="1" stop-color="#6EA0FF"/></linearGradient>
  </defs>
  <rect width="1200" height="600" fill="url(#bg)"/>
  <g transform="translate(120,140) skewX(-15)">
    <rect x="0" y="0" width="280" height="28" rx="10" fill="#111821" stroke="#1D2836"/>
    <rect x="0" y="44" width="320" height="28" rx="10" fill="#111821" stroke="#1D2836"/>
    <rect x="0" y="88" width="360" height="28" rx="10" fill="#111821" stroke="#1D2836"/>
    <rect x="0" y="132" width="400" height="28" rx="10" fill="#111821" stroke="#1D2836"/>
    <rect x="0" y="176" width="440" height="28" rx="10" fill="#111821" stroke="#1D2836"/>
  </g>
  <g transform="translate(680,220) skewX(-15)">
    <rect x="0" y="0" width="360" height="28" rx="10" fill="#0F1722" stroke="#1D2836"/>
    <rect x="0" y="44" width="320" height="28" rx="10" fill="#0F1722" stroke="#1D2836"/>
    <rect x="0" y="88" width="280" height="28" rx="10" fill="#0F1722" stroke="#1D2836"/>
    <rect x="0" y="132" width="240" height="28" rx="10" fill="#0F1722" stroke="#1D2836"/>
  </g>
  <rect x="120" y="100" width="520" height="4" rx="2" fill="url(#g1)"/>
</svg>