<?xml version="1.0" encoding="UTF-8"?>
<svg width="256" height="256" viewBox="0 0 256 256" xmlns="http://www.w3.org/2000/svg" role="img" aria-label="CalcWood logo src">
  <defs>
    <linearGradient id="g" x1="0" y1="0" x2="1" y2="1">
      <stop offset="0" stop-color="#5CC489"/><stop offset="1" stop-color="#6EA0FF"/>
    </linearGradient>
  </defs>
  <rect x="16" y="16" width="224" height="224" rx="36" fill="#111821" stroke="#1D2836" stroke-width="2"/>
  <path d="M70 120c0-26 18-46 44-46h22v20h-22c-14 0-24 10-24 26s10 26 24 26h22v20h-22c-26 0-44-20-44-46z" fill="url(#g)"/>
  <path d="M122 74h24c26 0 44 20 44 46s-18 46-44 46h-24v-20h24c14 0 24-10 24-26s-10-26-24-26h-24V74z" fill="url(#g)"/>
</svg>